<?xml version="1.0" encoding="utf-8" ?><svg xmlns="http://www.w3.org/2000/svg" xmlns:xlink="http://www.w3.org/1999/xlink" width="32" height="32" viewBox="0 0 32 32"><path fill="#00F3FC" fill-opacity="0.98823529" transform="scale(0.03125 0.03125)" d="M219.904 144.205C244.754 140.406 270.652 162.803 271.725 187.803C272.236 199.709 272.03 211.588 272.013 223.51L271.995 289.821L271.857 508.57L271.87 728.803L271.952 799.643C271.963 809.366 272.517 826.669 271.743 835.709C270.84 845.864 266.875 855.507 260.372 863.36C252.104 873.245 240.303 878.575 227.623 879.779C215.61 880.798 203.666 877.148 194.274 869.587C172.571 852.465 175.979 830.403 175.988 805.925L175.995 744.587L175.994 544.306L175.982 303.716L175.972 227.428C175.971 217.216 175.426 197.794 176.22 188.108C176.928 178.329 180.643 169.008 186.855 161.422C195.226 151.171 206.828 145.449 219.904 144.205Z"/><path fill="#00F3FC" fill-opacity="0.98823529" transform="scale(0.03125 0.03125)" d="M795.619 144.194C795.745 144.17 795.871 144.145 795.996 144.12C821.869 141.702 845.475 161.436 847.778 187.296C848.193 191.949 847.982 196.973 848.012 201.667C848.058 208.903 848.017 216.147 848.017 223.384L847.998 292.669L847.713 514.171L847.789 730.425L847.944 798.66C847.983 810.461 848.263 823.236 847.785 834.983C847.384 844.855 842.798 855.801 836.342 863.344C828.285 872.697 816.908 878.552 804.615 879.671C793.763 881.659 779.596 876.674 770.971 870.139C760.639 862.222 753.95 850.46 752.427 837.533C751.607 830.878 751.998 815.574 751.995 808.274L751.988 754.766L751.985 575.598L751.978 314.898L751.981 232.566C751.973 220.54 751.348 200.245 752.166 188.678C752.853 178.768 756.548 169.304 762.757 161.55C771.098 151.187 782.559 145.666 795.619 144.194Z"/><path fill="#00F3FC" fill-opacity="0.98823529" transform="scale(0.03125 0.03125)" d="M511.837 352.439C514.147 353.785 525.854 365.717 528.567 368.43L568.604 408.738L636.457 476.543C648.036 488.084 660.863 500.223 671.982 512.059C619.385 565.654 564.503 618.201 512.351 672.03C522.631 671.815 533.69 671.984 544.021 671.978L544.017 735.963L512.716 735.983L480.029 735.995C479.681 715.052 479.994 693.037 479.995 672.028C489.548 671.501 502.014 671.946 511.801 671.971C505.024 665.673 497.216 657.24 490.558 650.537L447.176 607.061L388.316 548.266C376.453 536.412 363.495 523.802 352.008 511.665C355.419 508.543 358.836 505.055 362.137 501.789C412.229 452.244 461.4 401.623 511.837 352.439Z"/><path fill="#00F3FC" fill-opacity="0.98823529" transform="scale(0.03125 0.03125)" d="M479.988 288.026C500.229 287.351 523.642 287.739 543.996 287.925L544.037 351.965L480.023 352.072L479.988 288.026Z"/><path fill="#00F3FC" fill-opacity="0.98823529" transform="scale(0.03125 0.03125)" d="M479.977 800.016C500.716 799.4 523.138 799.832 544.014 799.834L544.033 831.935L480.077 831.992C479.741 821.625 479.96 810.441 479.977 800.016Z"/><path fill="#00F3FC" fill-opacity="0.98823529" transform="scale(0.03125 0.03125)" d="M479.89 191.913C499.563 192.662 524.114 191.99 544.089 192.019C543.884 202.437 544.037 213.499 544.027 223.964L480.043 224.037C479.712 213.796 479.909 202.229 479.89 191.913Z"/></svg>